<?xml version="1.0" standalone="no"?>
<!DOCTYPE svg PUBLIC "-//W3C//DTD SVG 20010904//EN"
 "http://www.w3.org/TR/2001/REC-SVG-20010904/DTD/svg10.dtd">
<svg version="1.0" xmlns="http://www.w3.org/2000/svg"
 width="900.000000pt" height="980.000000pt" viewBox="0 0 900.000000 980.000000"
 preserveAspectRatio="xMidYMid meet">

<g transform="translate(0.000000,980.000000) scale(0.100000,-0.100000)"
fill="#000000" stroke="none">
<path d="M2405 9793 c-173 -24 -267 -87 -297 -196 -11 -41 -10 -57 4 -112 17
-62 40 -92 711 -927 381 -475 696 -868 700 -874 4 -7 -32 -144 -79 -305 -992
-3414 -1590 -5575 -1611 -5829 -5 -61 -3 -68 27 -112 160 -238 1006 -789 1855
-1208 292 -144 464 -216 537 -226 82 -11 315 85 721 298 862 452 1644 980
1737 1173 l21 43 -21 103 c-90 444 -775 2908 -1588 5715 l-99 341 669 879
c367 483 680 903 695 933 38 76 42 146 11 191 -29 43 -76 75 -142 98 -48 16
-173 17 -1936 18 -1037 1 -1898 -1 -1915 -3z m3255 -447 c0 -2 -268 -352 -595
-776 -387 -502 -594 -778 -591 -789 52 -170 1388 -5287 1527 -5850 l60 -243
-27 -30 c-80 -83 -596 -380 -1413 -815 l-345 -183 -225 117 c-860 442 -1396
746 -1518 861 -23 21 -33 39 -33 59 0 76 679 2694 1516 5842 55 207 65 257 56
272 -7 10 -214 272 -460 581 -246 310 -519 652 -605 761 l-157 197 1405 0
c773 0 1405 -2 1405 -4z"/>
<path d="M5403 7535 c6 -18 266 -855 973 -3133 202 -653 261 -830 270 -820 27
29 459 656 480 698 43 86 56 211 33 321 -11 51 -89 183 -1543 2599 -115 190
-210 347 -213 350 -3 3 -3 -4 0 -15z"/>
</g>
</svg>
