<?xml version="1.0" standalone="no"?>
<!DOCTYPE svg PUBLIC "-//W3C//DTD SVG 20010904//EN"
 "http://www.w3.org/TR/2001/REC-SVG-20010904/DTD/svg10.dtd">
<svg version="1.0" xmlns="http://www.w3.org/2000/svg"
 width="225.000000pt" height="225.000000pt" viewBox="0 0 225.000000 225.000000"
 preserveAspectRatio="xMidYMid meet">

<g transform="translate(0.000000,225.000000) scale(0.100000,-0.100000)"
fill="#000000" stroke="none">
<path d="M361 2239 c-172 -34 -318 -182 -351 -358 -14 -73 -14 -1439 0 -1512
34 -180 179 -325 359 -359 73 -14 1439 -14 1512 0 180 34 325 179 359 359 14
73 14 1439 0 1512 -34 180 -179 325 -359 359 -66 12 -1456 12 -1520 -1z m1452
-238 c78 -31 157 -110 188 -188 l24 -58 0 -630 0 -630 -24 -58 c-31 -78 -110
-157 -188 -188 l-58 -24 -630 0 -630 0 -58 24 c-78 31 -157 110 -188 188 l-24
58 0 630 0 630 23 58 c43 106 145 187 261 207 25 5 316 7 646 7 l600 -2 58
-24z"/>
<path d="M955 1690 l55 -110 115 0 115 0 55 110 55 110 -225 0 -225 0 55 -110z"/>
<path d="M900 1124 l-112 -336 168 -169 169 -169 169 169 168 169 -112 336
-112 336 -113 0 -113 0 -112 -336z"/>
</g>
</svg>
